<svg xmlns="http://www.w3.org/2000/svg" xmlns:xlink="http://www.w3.org/1999/xlink" preserveAspectRatio="xMidYMid" width="64.062" height="64.25" viewBox="0 0 64.062 64.25">
  <defs>
    <style>
      .cls-1 {
        fill: #1b1b1b;
        fill-rule: evenodd;
      }
    </style>
  </defs>
  <path d="M63.348,47.895 L62.778,48.109 C62.098,48.545 61.262,48.148 60.856,47.450 L57.853,41.874 C56.021,54.671 45.039,64.253 32.030,64.253 C19.014,64.253 8.042,54.669 6.213,41.866 L3.206,47.450 C2.800,48.148 1.964,48.545 1.284,48.109 L0.713,47.895 C0.033,47.457 -0.189,46.538 0.217,45.839 L5.359,36.383 C5.366,36.371 5.365,36.357 5.372,36.345 L5.740,35.712 C5.944,35.362 6.267,35.135 6.626,35.050 C6.983,34.962 7.376,35.016 7.714,35.235 L8.330,35.631 C8.342,35.638 8.348,35.649 8.361,35.658 L17.460,41.803 C18.140,42.239 18.362,43.158 17.957,43.858 L17.547,44.309 C17.141,45.008 16.218,45.036 15.538,44.599 L10.103,40.904 C11.395,51.278 19.768,59.236 30.030,60.160 L30.030,20.062 L22.031,20.062 C20.926,20.062 20.031,19.166 20.031,18.062 C20.031,16.957 20.926,16.062 22.031,16.062 L30.138,16.062 C30.155,16.007 30.151,15.945 30.171,15.892 C26.632,15.040 24.000,11.862 24.000,8.062 C24.000,3.609 27.609,-0.001 32.063,-0.001 C36.516,-0.001 40.125,3.609 40.125,8.062 C40.125,11.884 37.463,15.077 33.893,15.908 C33.912,15.956 33.908,16.012 33.923,16.062 L42.031,16.062 C43.135,16.062 44.031,16.957 44.031,18.062 C44.031,19.166 43.135,20.062 42.031,20.062 L34.030,20.062 L34.030,60.160 C44.294,59.236 52.677,51.274 53.965,40.899 L48.524,44.599 C47.844,45.036 46.920,45.008 46.515,44.309 L46.105,43.858 C45.700,43.158 45.922,42.239 46.602,41.803 L55.701,35.658 C55.714,35.649 55.720,35.638 55.732,35.631 L56.348,35.235 C56.686,35.016 57.079,34.962 57.435,35.050 C57.795,35.135 58.118,35.362 58.322,35.712 L58.690,36.345 C58.697,36.357 58.695,36.371 58.703,36.383 L63.845,45.839 C64.251,46.538 64.029,47.457 63.348,47.895 ZM36.125,8.062 C36.125,5.821 34.303,3.999 32.063,3.999 C29.822,3.999 28.000,5.821 28.000,8.062 C28.000,10.302 29.822,12.124 32.063,12.124 C34.303,12.124 36.125,10.302 36.125,8.062 Z" class="cls-1"/>
</svg>
