<svg xmlns="http://www.w3.org/2000/svg" xmlns:xlink="http://www.w3.org/1999/xlink" preserveAspectRatio="xMidYMid" width="64.188" height="48" viewBox="0 0 64.188 48">
  <defs>
    <style>
      .cls-1 {
        fill: #1b1b1b;
        fill-rule: evenodd;
      }
    </style>
  </defs>
  <path d="M64.104,33.420 C64.113,33.627 64.135,33.830 64.135,34.039 C64.135,41.748 57.885,47.998 50.176,47.998 C42.467,47.998 36.008,41.748 36.008,34.039 C36.008,32.851 36.178,31.704 36.466,30.603 C35.602,30.297 34.083,29.895 32.072,29.895 C30.012,29.895 28.530,30.336 27.709,30.665 C27.978,31.747 28.137,32.874 28.137,34.039 C28.137,41.748 21.887,47.998 14.178,47.998 C6.469,47.998 0.010,41.748 0.010,34.039 C0.010,33.746 0.037,33.459 0.055,33.170 C0.017,32.990 -0.006,32.804 0.008,32.611 C0.069,31.746 3.121,12.779 3.631,9.723 C3.680,9.430 3.719,9.117 3.762,8.789 C4.155,5.717 4.889,0.000 14.104,0.000 C15.209,0.000 16.104,0.895 16.104,2.000 C16.104,3.105 15.209,4.000 14.104,4.000 C8.408,4.000 8.108,6.338 7.729,9.299 C7.680,9.678 7.633,10.041 7.576,10.379 C7.338,11.816 6.240,17.569 5.313,23.195 C7.756,21.250 10.849,20.080 14.178,20.080 C19.301,20.080 23.767,22.849 26.195,26.963 C27.415,26.466 29.388,25.895 32.072,25.895 C34.795,25.895 36.833,26.461 38.034,26.915 C40.531,22.827 45.073,20.080 50.176,20.080 C53.354,20.080 56.275,21.154 58.621,22.943 C57.706,17.388 56.646,11.787 56.412,10.379 C56.356,10.041 56.309,9.678 56.260,9.299 C55.881,6.338 55.580,4.000 49.885,4.000 C48.780,4.000 47.885,3.105 47.885,2.000 C47.885,0.895 48.780,0.000 49.885,0.000 C59.100,0.000 59.834,5.717 60.227,8.789 C60.270,9.117 60.309,9.430 60.358,9.723 C60.867,12.779 64.119,31.871 64.180,32.737 C64.197,32.974 64.165,33.203 64.104,33.420 ZM14.178,24.080 C8.666,24.080 4.010,28.641 4.010,34.039 C4.010,39.438 8.666,43.998 14.178,43.998 C19.670,43.998 24.137,39.531 24.137,34.039 C24.137,28.547 19.670,24.080 14.178,24.080 ZM60.108,33.500 C60.049,33.348 60.004,33.189 59.992,33.022 C59.967,32.671 59.933,32.287 59.892,31.878 C58.902,27.423 54.925,24.080 50.176,24.080 C44.664,24.080 40.008,28.641 40.008,34.039 C40.008,39.438 44.664,43.998 50.176,43.998 C55.668,43.998 60.135,39.531 60.135,34.039 C60.135,33.857 60.117,33.680 60.108,33.500 Z" class="cls-1"/>
</svg>
