<svg xmlns="http://www.w3.org/2000/svg" xmlns:xlink="http://www.w3.org/1999/xlink" preserveAspectRatio="xMidYMid" width="64" height="52.031" viewBox="0 0 64 52.031">
  <defs>
    <style>
      .cls-1 {
        fill: #1b1b1b;
        fill-rule: evenodd;
      }
    </style>
  </defs>
  <path d="M60.000,42.018 L34.000,42.018 L34.000,48.031 L44.000,48.031 C45.105,48.031 46.000,48.926 46.000,50.031 C46.000,51.135 45.105,52.030 44.000,52.030 L20.000,52.030 C18.895,52.030 18.000,51.135 18.000,50.031 C18.000,48.926 18.895,48.031 20.000,48.031 L30.000,48.031 L30.000,42.018 L4.000,42.018 C1.801,42.018 -0.000,40.218 -0.000,38.018 L-0.000,4.007 C-0.000,1.808 1.801,0.007 4.000,0.007 L60.000,0.007 C62.199,0.007 64.000,1.808 64.000,4.007 L64.000,38.018 C64.000,40.218 62.199,42.018 60.000,42.018 ZM60.000,4.007 L4.000,4.007 L4.000,38.018 L60.000,38.018 L60.000,4.007 Z" class="cls-1"/>
</svg>
